<svg xmlns="http://www.w3.org/2000/svg" width="620" height="675" viewBox="0 0 620 675" version="1.1">
    <path d="M 308.427 2.226 L 306.500 4.500 308.652 2.684 L 310.804 0.867 315.040 5.184 L 319.277 9.500 315.449 5 C 313.344 2.525, 311.337 0.377, 310.988 0.226 C 310.639 0.075, 309.487 0.975, 308.427 2.226 M 300.462 10.250 L 295.500 15.500 300.750 10.538 C 305.628 5.926, 306.459 5, 305.712 5 C 305.554 5, 303.192 7.362, 300.462 10.250 M 335 26.500 C 339.651 31.175, 343.681 35, 343.956 35 C 344.231 35, 340.651 31.175, 336 26.500 C 331.349 21.825, 327.319 18, 327.044 18 C 326.769 18, 330.349 21.825, 335 26.500 M 282.761 28.750 C 278.505 33.013, 274.693 36.950, 274.291 37.500 C 273.889 38.050, 277.484 34.685, 282.280 30.022 C 290.318 22.208, 291.452 20.999, 290.750 21 C 290.613 21.001, 287.017 24.488, 282.761 28.750 M 353.500 46 C 357.320 49.850, 360.671 53, 360.946 53 C 361.221 53, 358.320 49.850, 354.500 46 C 350.680 42.150, 347.329 39, 347.054 39 C 346.779 39, 349.680 42.150, 353.500 46 M 265.462 47.250 L 260.500 52.500 265.750 47.538 C 268.637 44.808, 271 42.446, 271 42.288 C 271 41.541, 270.074 42.372, 265.462 47.250 M 171.810 55.730 C 166.690 58.331, 162.350 60.806, 162.167 61.230 C 161.983 61.653, 161.302 62, 160.653 62 C 160.004 62, 157.169 63.552, 154.352 65.449 C 151.535 67.346, 148.954 68.621, 148.615 68.282 C 148.277 67.944, 148 68.125, 148 68.686 C 148 69.853, 138.580 77.430, 130.027 83.141 C 124.478 86.846, 121 91.576, 121 95.416 C 121 97.530, 126.920 108, 128.115 108 C 129.665 108, 141.526 99.606, 154 89.681 C 157.973 86.521, 176.123 75.034, 181 72.594 C 184.025 71.080, 187.255 69.163, 188.177 68.332 C 190.558 66.188, 191.531 59.361, 189.893 56.300 C 188.646 53.970, 184.285 51, 182.110 51 C 181.566 51, 176.931 53.128, 171.810 55.730 M 433.770 52.966 C 432.395 54.047, 430.713 56.278, 430.032 57.922 C 428.977 60.469, 429.068 61.475, 430.647 64.706 C 432.182 67.849, 434.137 69.373, 442.044 73.588 C 450.377 78.031, 462.498 85.335, 465.500 87.722 C 466.050 88.160, 469.875 90.977, 474 93.984 C 478.125 96.990, 481.725 99.697, 482 100.001 C 483.989 102.193, 491.071 107, 492.312 107 C 494.400 107, 498.092 100.754, 498.684 96.222 C 499.683 88.570, 496.214 84.953, 473.500 69.965 C 466.900 65.610, 461.036 61.699, 460.468 61.273 C 456.908 58.606, 440.844 51, 438.770 51 C 437.395 51, 435.145 51.885, 433.770 52.966 M 366.500 60 C 369.209 62.750, 371.650 65, 371.925 65 C 372.200 65, 370.209 62.750, 367.500 60 C 364.791 57.250, 362.350 55, 362.075 55 C 361.800 55, 363.791 57.250, 366.500 60 M 87.480 58.250 C 81.338 75.033, 76.991 88.882, 77.225 90.913 C 77.390 92.336, 78.307 94.613, 79.262 95.973 L 81 98.445 81 95.345 C 81 91.830, 83.577 85, 84.903 85 C 86.753 85, 97.756 93.932, 103.283 99.920 C 106.463 103.366, 110.604 109.181, 112.484 112.842 C 114.364 116.504, 115.908 119.050, 115.915 118.500 C 115.923 117.950, 115.333 116.424, 114.603 115.108 C 113.823 113.700, 113.470 111.007, 113.746 108.561 C 114.457 102.252, 111.268 88.393, 107.290 80.500 C 103.166 72.319, 101.225 69.377, 95.248 62.250 C 90.919 57.088, 88.383 55.782, 87.480 58.250 M 526.327 61.262 C 518.631 69.610, 512.958 79.100, 509.446 89.500 C 507.872 94.161, 506.177 116.408, 507.656 113 C 511.386 104.402, 533.901 83.568, 536.574 86.241 C 536.934 86.600, 537.749 90.544, 538.386 95.005 L 539.545 103.116 541.773 98.531 C 542.998 96.010, 544.001 93.396, 544.002 92.723 C 544.003 92.050, 541.717 84.300, 538.923 75.500 C 536.129 66.700, 533.667 58.938, 533.453 58.250 C 532.731 55.937, 530.279 56.973, 526.327 61.262 M 251 62.500 C 248.571 64.975, 246.809 67, 247.084 67 C 247.359 67, 249.571 64.975, 252 62.500 C 254.429 60.025, 256.191 58, 255.916 58 C 255.641 58, 253.429 60.025, 251 62.500 M 380 74.500 C 383.543 78.075, 386.667 81, 386.942 81 C 387.217 81, 384.543 78.075, 381 74.500 C 377.457 70.925, 374.333 68, 374.058 68 C 373.783 68, 376.457 70.925, 380 74.500 M 24.365 78.500 C 24.368 84, 24.536 86.122, 24.738 83.216 C 24.941 80.311, 24.939 75.811, 24.734 73.216 C 24.528 70.622, 24.363 73, 24.365 78.500 M 236.462 78.250 L 231.500 83.500 236.750 78.538 C 241.628 73.926, 242.459 73, 241.712 73 C 241.554 73, 239.192 75.362, 236.462 78.250 M 562.966 85.750 L 557.500 91.500 563.250 86.034 C 568.592 80.956, 569.458 80, 568.716 80 C 568.560 80, 565.972 82.588, 562.966 85.750 M 57.500 85 C 59.648 87.200, 61.631 89, 61.906 89 C 62.181 89, 60.648 87.200, 58.500 85 C 56.352 82.800, 54.369 81, 54.094 81 C 53.819 81, 55.352 82.800, 57.500 85 M 596.079 86.750 C 596.166 91.978, 596.651 91.555, 597.227 85.750 C 597.431 83.688, 597.239 82, 596.799 82 C 596.360 82, 596.036 84.138, 596.079 86.750 M 393.500 89 C 396.766 92.300, 399.662 95, 399.937 95 C 400.212 95, 397.766 92.300, 394.500 89 C 391.234 85.700, 388.338 83, 388.063 83 C 387.788 83, 390.234 85.700, 393.500 89 M 221.462 94.250 L 216.500 99.500 221.750 94.538 C 226.628 89.926, 227.459 89, 226.712 89 C 226.554 89, 224.192 91.362, 221.462 94.250 M 406.958 103.250 C 411.102 107.665, 412 108.459, 412 107.708 C 412 107.548, 409.863 105.410, 407.250 102.958 L 402.500 98.500 406.958 103.250 M 592.184 104.781 C 591.513 107.021, 589.427 111.136, 587.550 113.926 C 583.911 119.333, 583.792 120.787, 587.356 116.301 C 589.926 113.066, 594.249 103.246, 593.755 101.764 C 593.561 101.184, 592.854 102.542, 592.184 104.781 M 210.453 106.250 L 206.500 110.500 210.750 106.547 C 214.702 102.871, 215.460 102, 214.703 102 C 214.540 102, 212.627 103.912, 210.453 106.250 M 422.500 120 C 426.320 123.850, 429.671 127, 429.946 127 C 430.221 127, 427.320 123.850, 423.500 120 C 419.680 116.150, 416.329 113, 416.054 113 C 415.779 113, 418.680 116.150, 422.500 120 M 195.971 121.750 L 189.500 128.500 196.250 122.029 C 202.520 116.018, 203.457 115, 202.721 115 C 202.568 115, 199.530 118.037, 195.971 121.750 M 75.204 127.677 C 75.031 135.472, 74.737 136.922, 73.250 137.311 L 71.500 137.768 73.281 137.884 C 75.784 138.047, 76.133 136.492, 75.747 126.916 L 75.407 118.500 75.204 127.677 M 434.973 133.250 L 439.416 138 394.831 138 L 350.245 138 348.872 139.750 C 347.646 141.313, 347.676 141.362, 349.151 140.209 C 350.457 139.189, 360.033 138.980, 394.811 139.209 C 419.016 139.369, 439.176 139.147, 439.612 138.715 C 440.047 138.283, 438.182 135.808, 435.466 133.215 L 430.529 128.500 434.973 133.250 M 501.320 138 C 501.320 141.575, 501.502 143.037, 501.723 141.250 C 501.945 139.463, 501.945 136.537, 501.723 134.750 C 501.502 132.963, 501.320 134.425, 501.320 138 M 182 136.500 L 179.651 139 187.076 139.018 C 191.159 139.028, 211.938 139.313, 233.250 139.651 C 261.795 140.103, 272 139.966, 272 139.132 C 272 138.306, 259.797 138, 226.845 138 L 181.690 138 183.500 136 C 186.132 133.092, 184.778 133.543, 182 136.500 M 23 140.435 C 13.598 142.185, 11.758 142.927, 12.436 144.693 C 13.568 147.643, 20.430 155.573, 25.256 159.508 C 27.949 161.704, 30.727 164.029, 31.429 164.675 C 33.296 166.391, 46.163 173.079, 48.500 173.548 C 49.600 173.768, 53.425 174.626, 57 175.454 C 63.804 177.029, 75.010 177.313, 83.500 176.126 L 88.500 175.426 82.328 174.672 C 70.021 173.169, 58.145 164.641, 48.681 150.511 C 46.107 146.667, 44 142.963, 44 142.280 C 44 139.842, 31.898 138.779, 23 140.435 M 581.500 140.426 C 580.950 140.651, 578.700 141.152, 576.500 141.538 C 573.655 142.037, 573.011 142.427, 574.268 142.889 C 575.822 143.460, 575.483 144.383, 571.462 150.519 C 561.546 165.653, 553.905 171.134, 538 174.522 L 532.500 175.693 537.392 176.481 C 540.083 176.915, 547.058 177.009, 552.892 176.691 C 567.643 175.885, 580.329 171.472, 590.480 163.612 C 596.447 158.993, 609 145.989, 609 144.428 C 609 141.910, 604.858 140.828, 593.653 140.420 C 587.519 140.197, 582.050 140.200, 581.500 140.426 M 274.425 162 C 274.425 173.825, 274.569 178.662, 274.746 172.750 C 274.923 166.838, 274.923 157.162, 274.746 151.250 C 274.569 145.338, 274.425 150.175, 274.425 162 M 346.445 173 C 346.445 190.325, 346.582 197.412, 346.748 188.750 C 346.915 180.087, 346.915 165.912, 346.748 157.250 C 346.582 148.587, 346.445 155.675, 346.445 173 M 43.365 185.851 C 39.571 189.021, 30.880 209.738, 25.894 227.500 C 20.827 245.551, 18.684 256.623, 17.477 271 C 17.176 274.575, 16.707 278.236, 16.434 279.135 C 15.840 281.094, 17.878 286.019, 19.988 287.718 C 21.890 289.251, 28.139 289.349, 31.327 287.897 C 34.370 286.510, 35.575 282.676, 37.490 268.277 C 40.181 248.047, 46.731 222.883, 53.050 208.500 C 54.258 205.750, 56.091 201.612, 57.123 199.305 C 59.718 193.505, 59.535 189.444, 56.545 186.455 C 53.505 183.414, 46.656 183.100, 43.365 185.851 M 564.973 185.692 C 559.685 189.310, 559.747 190.549, 566 206.304 C 568.750 213.234, 571 219.825, 571 220.951 C 571 222.078, 571.374 223, 571.832 223 C 572.289 223, 573.207 225.137, 573.872 227.750 C 574.536 230.363, 575.525 234.075, 576.069 236 C 576.613 237.925, 577.240 240.175, 577.464 241 C 579.178 247.334, 582.932 267.885, 583.484 273.956 C 583.857 278.057, 584.780 282.609, 585.537 284.071 C 586.914 286.734, 592.367 290, 595.436 290 C 599.701 290, 605.843 282.404, 604.488 278.806 C 604.218 278.088, 603.105 271.425, 602.015 264 C 600.207 251.686, 596.887 235.715, 594.013 225.500 C 593.394 223.300, 592.513 220.150, 592.056 218.500 C 590.723 213.691, 583.909 196.590, 582.911 195.550 C 582.410 195.028, 582 193.878, 582 192.995 C 582 192.113, 580.477 189.728, 578.615 187.695 C 575.823 184.647, 574.548 184, 571.338 184 C 569.197 184, 566.332 184.761, 564.973 185.692 M 488.500 207 C 496.185 214.700, 502.698 221, 502.973 221 C 503.248 221, 497.185 214.700, 489.500 207 C 481.815 199.300, 475.302 193, 475.027 193 C 474.752 193, 480.815 199.300, 488.500 207 M 453.945 213.557 C 443.250 224.313, 434.292 233.425, 434.037 233.807 C 433.782 234.188, 442.670 225.504, 453.787 214.509 C 464.904 203.515, 474 194.402, 474 194.259 C 474 193.483, 471.777 195.621, 453.945 213.557 M 454.285 271.866 C 426.667 299.662, 404.186 322.519, 404.327 322.661 C 404.716 323.049, 504.440 223.180, 504.829 222.013 C 505.015 221.456, 505.017 221.074, 504.833 221.165 C 504.650 221.255, 481.903 244.071, 454.285 271.866 M 196.500 244 C 208.040 255.550, 217.707 265, 217.982 265 C 218.257 265, 209.040 255.550, 197.500 244 C 185.960 232.450, 176.293 223, 176.018 223 C 175.743 223, 184.960 232.450, 196.500 244 M 92.688 249.133 C 85.710 255.806, 80 261.829, 80 262.517 C 80 263.205, 83.423 267.082, 87.606 271.134 C 118.283 300.845, 241.445 424.304, 241.225 425.124 C 241.074 425.688, 241.337 425.910, 241.810 425.618 C 242.282 425.326, 244.637 427.092, 247.043 429.543 C 249.448 431.995, 251.998 434, 252.708 434 C 253.730 434, 254 428.756, 254 408.950 L 254 383.901 221.750 351.491 C 204.012 333.666, 188.761 318.276, 187.859 317.291 C 186.956 316.306, 181.106 310.492, 174.859 304.370 C 168.611 298.249, 161.628 291.274, 159.340 288.870 C 147.389 276.316, 107.249 237, 106.382 237 C 105.829 237, 99.667 242.460, 92.688 249.133 M 507.500 242.948 C 504.200 246.205, 481.475 268.948, 457 293.487 C 432.525 318.027, 401.606 348.818, 388.292 361.912 L 364.083 385.719 363.104 392.110 C 362.130 398.462, 361.507 440, 362.386 440 C 363.082 440, 369 433.937, 369 433.224 C 369 432.882, 378.563 423.243, 390.250 411.804 C 401.938 400.366, 411.950 390.529, 412.500 389.944 C 415.961 386.265, 472.109 331.096, 474.156 329.362 C 474.895 328.736, 476.844 326.638, 478.486 324.699 C 480.129 322.761, 481.817 321.387, 482.236 321.646 C 482.656 321.906, 483 321.586, 483 320.936 C 483 320.286, 486.215 316.772, 490.144 313.127 C 494.073 309.482, 499.136 304.481, 501.394 302.014 C 505.802 297.199, 517.243 285.842, 531.896 271.737 C 536.903 266.918, 541 262.747, 541 262.470 C 541 261.509, 515.496 237.017, 514.500 237.021 C 513.950 237.023, 510.800 239.690, 507.500 242.948 M 393.966 273.515 C 367.551 299.979, 363.498 304.898, 366.026 307.426 C 366.658 308.058, 367 307.191, 367 304.957 L 367 301.513 394.743 273.757 C 410.002 258.490, 422.249 246, 421.959 246 C 421.669 246, 409.072 258.382, 393.966 273.515 M 516.494 310.250 L 482.500 344.500 516.750 310.506 C 535.587 291.809, 551 276.396, 551 276.256 C 551 275.550, 548.088 278.419, 516.494 310.250 M 93 300.500 C 104.265 311.775, 113.707 321, 113.982 321 C 114.257 321, 105.265 311.775, 94 300.500 C 82.735 289.225, 73.293 280, 73.018 280 C 72.743 280, 81.735 289.225, 93 300.500 M 559.958 284.250 C 562.410 286.863, 564.548 289, 564.708 289 C 565.459 289, 564.665 288.102, 560.250 283.958 L 555.500 279.500 559.958 284.250 M 182 288.500 C 184.987 291.525, 187.657 294, 187.932 294 C 188.207 294, 185.987 291.525, 183 288.500 C 180.013 285.475, 177.343 283, 177.068 283 C 176.793 283, 179.013 285.475, 182 288.500 M 248 295.500 C 249.866 297.425, 251.617 299, 251.892 299 C 252.167 299, 250.866 297.425, 249 295.500 C 247.134 293.575, 245.383 292, 245.108 292 C 244.833 292, 246.134 293.575, 248 295.500 M 253.234 329.491 L 253 358.483 231.250 336.994 L 209.500 315.506 231.210 337.460 C 243.150 349.535, 253.170 359.164, 253.475 358.858 C 253.781 358.552, 253.904 345.297, 253.750 329.401 L 253.468 300.500 253.234 329.491 M 543.500 336.772 C 530.850 349.290, 506.325 373.443, 489 390.446 C 445.369 433.264, 388.167 490.118, 389.058 489.780 C 389.465 489.626, 415.799 463.850, 447.579 432.500 C 546.616 334.803, 567.516 314.071, 567 314.041 C 566.725 314.025, 556.150 324.254, 543.500 336.772 M 11.984 332.750 L 0.500 344.500 12.250 333.016 C 18.713 326.700, 24 321.413, 24 321.266 C 24 320.546, 22.650 321.836, 11.984 332.750 M 561.991 343.750 L 541.500 364.500 562.250 344.009 C 581.530 324.970, 583.451 323, 582.741 323 C 582.598 323, 573.261 332.337, 561.991 343.750 M 604.500 329 C 607.209 331.750, 609.650 334, 609.925 334 C 610.200 334, 608.209 331.750, 605.500 329 C 602.791 326.250, 600.350 324, 600.075 324 C 599.800 324, 601.791 326.250, 604.500 329 M 346.431 362.500 C 346.432 375.700, 346.574 380.962, 346.747 374.193 C 346.921 367.424, 346.920 356.624, 346.746 350.193 C 346.572 343.762, 346.431 349.300, 346.431 362.500 M 386.500 339.800 C 385.950 340.223, 382.125 344.154, 378.001 348.535 L 370.502 356.500 379.251 348.022 C 384.063 343.359, 388 339.422, 388 339.272 C 388 338.829, 387.562 338.983, 386.500 339.800 M 86 348.500 C 89.543 352.075, 92.667 355, 92.942 355 C 93.217 355, 90.543 352.075, 87 348.500 C 83.457 344.925, 80.333 342, 80.058 342 C 79.783 342, 82.457 344.925, 86 348.500 M 146.500 354 C 152.531 360.050, 157.691 365, 157.966 365 C 158.241 365, 153.531 360.050, 147.500 354 C 141.469 347.950, 136.309 343, 136.034 343 C 135.759 343, 140.469 347.950, 146.500 354 M 16.500 361 C 24.736 369.250, 31.700 376, 31.975 376 C 32.250 376, 25.736 369.250, 17.500 361 C 9.264 352.750, 2.300 346, 2.025 346 C 1.750 346, 8.264 352.750, 16.500 361 M 610.437 354.103 C 608.822 355.810, 593.550 370.745, 576.500 387.291 C 543.962 418.868, 515.034 447.206, 463.500 497.986 C 446.450 514.787, 417.875 542.925, 400 560.516 L 367.500 592.500 366.944 582.500 L 366.387 572.500 366.194 583.339 L 366 594.178 369.250 591.476 C 372.267 588.968, 427.152 535.487, 470 493.303 C 480.175 483.286, 488.894 475.098, 489.376 475.108 C 489.858 475.118, 490.795 474.085, 491.458 472.813 C 492.121 471.541, 493.189 470.613, 493.832 470.750 C 494.474 470.888, 494.889 470.663, 494.752 470.250 C 494.437 469.295, 530.622 433.684, 532.642 432.961 C 533.470 432.664, 534.002 432.124, 533.824 431.759 C 533.315 430.719, 541.223 423.020, 542.187 423.616 C 542.662 423.909, 542.926 423.590, 542.775 422.906 C 542.624 422.223, 543.541 421.121, 544.813 420.458 C 546.085 419.795, 547.098 418.971, 547.063 418.626 C 547.028 418.282, 547.337 417.956, 547.750 417.901 C 549.757 417.638, 551.984 415.783, 551.410 414.854 C 550.629 413.591, 556.511 408, 558.621 408 C 559.444 408, 559.875 407.606, 559.577 407.125 C 559.280 406.643, 563.847 401.581, 569.726 395.875 C 591.213 375.021, 615.025 351, 614.210 351 C 613.751 351, 612.052 352.397, 610.437 354.103 M 469.946 356.750 L 466.500 360.500 470.250 357.054 C 472.313 355.158, 474 353.471, 474 353.304 C 474 352.540, 473.154 353.260, 469.946 356.750 M 126 388.500 C 142.768 405.275, 156.713 419, 156.988 419 C 157.263 419, 143.768 405.275, 127 388.500 C 110.232 371.725, 96.287 358, 96.012 358 C 95.737 358, 109.232 371.725, 126 388.500 M 89 376.500 C 90.866 378.425, 92.617 380, 92.892 380 C 93.167 380, 91.866 378.425, 90 376.500 C 88.134 374.575, 86.383 373, 86.108 373 C 85.833 373, 87.134 374.575, 89 376.500 M 216.500 423 C 236.844 443.350, 253.715 460, 253.990 460 C 254.265 460, 237.844 443.350, 217.500 423 C 197.156 402.650, 180.285 386, 180.010 386 C 179.735 386, 196.156 402.650, 216.500 423 M 110.500 398 C 112.648 400.200, 114.631 402, 114.906 402 C 115.181 402, 113.648 400.200, 111.500 398 C 109.352 395.800, 107.369 394, 107.094 394 C 106.819 394, 108.352 395.800, 110.500 398 M 394.494 431.011 L 362.500 463.022 361.949 451.761 L 361.399 440.500 361.199 452.250 C 361.090 458.712, 361.340 464, 361.756 464 C 362.171 464, 377.131 449.375, 395 431.500 C 412.869 413.625, 427.263 399, 426.988 399 C 426.713 399, 412.091 413.405, 394.494 431.011 M 81.500 425 C 94.141 437.650, 104.709 448, 104.984 448 C 105.259 448, 95.141 437.650, 82.500 425 C 69.859 412.350, 59.291 402, 59.016 402 C 58.741 402, 68.859 412.350, 81.500 425 M 339.104 410.462 C 335.915 418.157, 328.062 428.953, 317.619 440 L 308.638 449.500 318.150 440 C 323.381 434.775, 329.761 427.520, 332.328 423.877 C 336.926 417.350, 342.608 406.275, 341.782 405.448 C 341.549 405.215, 340.344 407.471, 339.104 410.462 M 160.500 447 C 180.844 467.350, 197.715 484, 197.990 484 C 198.265 484, 181.844 467.350, 161.500 447 C 141.156 426.650, 124.285 410, 124.010 410 C 123.735 410, 140.156 426.650, 160.500 447 M 468.492 436.250 L 444.500 460.500 468.750 436.508 C 491.284 414.214, 493.451 412, 492.742 412 C 492.600 412, 481.688 422.913, 468.492 436.250 M 273.974 458.584 C 273.665 474.289, 273.848 482.668, 274.500 482.669 C 275.135 482.669, 275.406 476.980, 275.242 467.085 C 274.740 436.770, 274.442 434.771, 273.974 458.584 M 328.980 454.750 L 319.500 464.500 329.250 455.020 C 338.306 446.215, 339.455 445, 338.730 445 C 338.582 445, 334.194 449.387, 328.980 454.750 M 303 453.500 C 300.571 455.975, 298.809 458, 299.084 458 C 299.359 458, 301.571 455.975, 304 453.500 C 306.429 451.025, 308.191 449, 307.916 449 C 307.641 449, 305.429 451.025, 303 453.500 M 222.500 484 C 238.443 499.950, 251.712 513, 251.987 513 C 252.262 513, 239.443 499.950, 223.500 484 C 207.557 468.050, 194.288 455, 194.013 455 C 193.738 455, 206.557 468.050, 222.500 484 M 128.986 471.250 C 141.514 484.023, 143 485.453, 143 484.736 C 143 484.591, 136.813 478.403, 129.250 470.986 L 115.500 457.500 128.986 471.250 M 252.781 488.001 C 252.627 502.851, 252.838 515.001, 253.250 515.001 C 253.662 515, 254 502.850, 254 488 C 254 473.150, 253.789 461, 253.531 461 C 253.274 461, 252.936 473.150, 252.781 488.001 M 305.483 477.250 L 294.500 488.500 305.750 477.517 C 311.938 471.476, 317 466.414, 317 466.267 C 317 465.546, 315.684 466.801, 305.483 477.250 M 380.500 497 C 377.234 500.300, 374.999 502.994, 375.531 502.986 C 376.064 502.979, 379.144 500.279, 382.375 496.986 C 385.607 493.694, 387.843 491, 387.344 491 C 386.845 491, 383.766 493.700, 380.500 497 M 225.500 511 C 229.320 514.850, 232.671 518, 232.946 518 C 233.221 518, 230.320 514.850, 226.500 511 C 222.680 507.150, 219.329 504, 219.054 504 C 218.779 504, 221.680 507.150, 225.500 511 M 361.212 516.284 C 354.508 523.003, 345.673 531.425, 341.579 535 C 337.484 538.575, 334.104 541.906, 334.067 542.402 C 333.995 543.376, 338.854 538.910, 360.367 518.230 C 367.994 510.899, 374.046 504.713, 373.818 504.484 C 373.589 504.256, 367.917 509.566, 361.212 516.284 M 379.500 524 C 372.917 530.600, 367.756 536, 368.031 536 C 368.306 536, 373.917 530.600, 380.500 524 C 387.083 517.400, 392.244 512, 391.969 512 C 391.694 512, 386.083 517.400, 379.500 524 M 191.545 533.250 C 198.120 539.987, 207.775 549.539, 213 554.475 C 218.225 559.411, 213.054 553.899, 201.509 542.225 C 189.964 530.551, 180.309 521, 180.053 521 C 179.798 521, 184.969 526.513, 191.545 533.250 M 274.233 560.250 C 274.035 582.982, 274.216 587, 275.441 587 C 276.234 587, 277.157 586.555, 277.493 586.011 C 277.842 585.447, 277.445 585.276, 276.569 585.612 C 275.217 586.131, 275 583.056, 274.749 559.851 L 274.465 533.500 274.233 560.250 M 366.328 544.500 C 366.333 548.350, 366.513 549.802, 366.730 547.728 C 366.946 545.653, 366.943 542.503, 366.722 540.728 C 366.501 538.952, 366.324 540.650, 366.328 544.500 M 327.500 547.622 L 322.500 552.203 327.750 548.008 C 332.296 544.376, 333.736 542.939, 332.750 543.021 C 332.613 543.032, 330.250 545.103, 327.500 547.622 M 252.786 571.001 C 252.629 583.651, 252.838 594.001, 253.250 594.001 C 253.662 594, 254 583.650, 254 571 C 254 558.350, 253.791 548, 253.536 548 C 253.281 548, 252.943 558.350, 252.786 571.001 M 316.500 556.610 L 312.500 560.189 316.750 557.011 C 320.408 554.275, 321.727 552.957, 320.750 553.015 C 320.613 553.023, 318.700 554.641, 316.500 556.610 M 346 581.500 C 346 594.058, 346.209 604.125, 346.464 603.869 C 347.144 603.189, 347.251 559.918, 346.574 559.241 C 346.258 558.925, 346 568.942, 346 581.500 M 233.500 575 C 238.979 580.500, 243.687 585, 243.962 585 C 244.237 585, 239.979 580.500, 234.500 575 C 229.021 569.500, 224.313 565, 224.038 565 C 223.763 565, 228.021 569.500, 233.500 575 M 274.667 609.667 C 274.300 610.033, 274 616.331, 274 623.662 L 274 636.990 180.750 637.250 L 87.500 637.510 181.199 637.755 L 274.897 638 275.199 623.498 C 275.364 615.523, 275.462 608.998, 275.417 608.998 C 275.371 608.999, 275.033 609.300, 274.667 609.667 M 398.326 637.750 C 426.831 637.897, 473.181 637.897, 501.326 637.750 C 529.472 637.602, 506.150 637.481, 449.500 637.482 C 392.850 637.482, 369.822 637.602, 398.326 637.750 M 50.286 656.500 C 50.294 659.250, 50.488 660.256, 50.718 658.736 C 50.947 657.216, 50.941 654.966, 50.704 653.736 C 50.467 652.506, 50.279 653.750, 50.286 656.500" stroke="none" fill="#c09f65" fill-rule="evenodd"/>
    <path d="M 301.372 10.250 C 277.398 35.053, 251.345 62.737, 215.019 102.007 C 208.154 109.428, 197.809 120.450, 192.030 126.500 L 181.523 137.500 226.444 137.760 C 266.493 137.993, 271.563 138.199, 273.183 139.665 L 275 141.310 275 311.702 L 275 482.093 281.250 475.090 C 284.688 471.239, 292 463.924, 297.500 458.836 C 324.695 433.678, 334.112 422.488, 340.007 408.329 C 346.606 392.476, 346.275 399.931, 346.393 264.855 L 346.500 142.210 348.396 140.115 L 350.292 138.020 394.608 137.760 L 438.924 137.500 405.813 102 C 387.602 82.475, 363.388 56.600, 352.005 44.500 C 340.622 32.400, 326.852 17.704, 321.405 11.842 C 315.957 5.980, 311.233 1.142, 310.907 1.092 C 310.580 1.041, 306.290 5.162, 301.372 10.250 M 25.017 78.183 C 25.038 91.685, 26.761 100.612, 31.109 109.746 C 35.012 117.944, 43.085 126.204, 51.527 130.636 C 57.345 133.691, 68.414 137, 72.814 137 L 75 137 74.985 127.750 C 74.957 109.810, 70.325 98.395, 58 85.890 C 51.678 79.476, 48.851 77.482, 40 73.192 C 34.225 70.394, 28.488 67.825, 27.250 67.484 L 25 66.865 25.017 78.183 M 588.896 69.807 C 577.925 74.281, 569.220 80.035, 562.174 87.471 C 550.669 99.611, 546.054 111.441, 546.017 128.879 L 546 137.258 551.185 136.570 C 559.052 135.526, 570.845 130.542, 577.097 125.619 C 584.021 120.166, 590.320 110.909, 593.066 102.150 C 595.657 93.889, 597.471 76.733, 596.338 71.206 L 595.500 67.113 588.896 69.807 M 82.445 88.750 C 80.649 93.007, 80.911 96.142, 83.968 107 C 85.550 112.618, 86.044 117.010, 85.934 124.500 C 85.808 133.212, 86.124 135.302, 88.394 140.730 C 89.827 144.157, 91 147.486, 91 148.129 C 91 150.214, 69.865 148.398, 56.500 145.163 C 49.900 143.566, 44.326 142.412, 44.113 142.600 C 43.900 142.787, 45.700 145.984, 48.113 149.705 C 54.252 159.171, 62.803 167.285, 70.773 171.209 C 76.739 174.146, 78.361 174.497, 85.976 174.498 C 93.294 174.500, 95.309 174.103, 100.214 171.694 C 110.035 166.871, 117.061 156.900, 119.201 144.748 C 121.542 131.460, 114.796 112.392, 103.379 100.023 C 97.774 93.952, 86.766 85, 84.903 85 C 84.421 85, 83.315 86.688, 82.445 88.750 M 529.900 89.122 C 519.052 96.818, 509.791 107.924, 505.404 118.500 L 502.500 125.500 502.500 137.521 L 502.500 149.542 505.787 156.218 C 510.094 164.967, 516.186 170.359, 524.752 173.005 C 532.512 175.402, 534.805 175.462, 542.450 173.471 C 550.849 171.283, 554.463 169.344, 560.613 163.723 C 566.130 158.681, 576.755 143.752, 575.197 143.232 C 574.727 143.076, 569.654 144.108, 563.922 145.527 C 553.458 148.116, 530 150.157, 530 148.478 C 530 148.029, 531.434 145.150, 533.186 142.081 L 536.372 136.500 536.115 126 C 535.942 118.913, 536.405 113.100, 537.540 108.115 C 538.662 103.187, 539 99.027, 538.555 95.615 C 537.118 84.592, 536.713 84.288, 529.900 89.122 M 130.527 207.973 L 116.580 221.947 184.781 290.223 L 252.981 358.500 252.991 329.448 L 253 300.396 199.643 247.198 C 170.296 217.939, 145.878 194, 145.379 194 C 144.881 194, 138.197 200.288, 130.527 207.973 M 420.947 247.455 L 367.500 300.945 366.733 306.151 C 366.311 309.013, 366.086 322.188, 366.233 335.428 L 366.500 359.500 435.304 290.972 L 504.108 222.443 490.015 208.472 C 482.264 200.787, 475.578 194.379, 475.158 194.232 C 474.737 194.085, 450.342 218.035, 420.947 247.455 M 54.032 289.617 L 40.654 303.104 106.489 368.302 C 142.699 404.161, 190.483 451.500, 212.676 473.500 L 253.028 513.500 253.264 486.626 L 253.500 459.752 161.831 368.711 C 111.413 318.638, 69.542 277.323, 68.785 276.900 C 67.824 276.362, 63.380 280.191, 54.032 289.617 M 511.973 315.322 C 490.269 336.870, 447.653 379.219, 417.271 409.432 C 386.889 439.645, 361.772 464.105, 361.455 463.788 C 361.138 463.472, 361.259 449.777, 361.723 433.356 C 362.187 416.935, 362.485 403.359, 362.386 403.186 C 362.287 403.013, 361.196 405.938, 359.963 409.686 C 353.948 427.963, 346.989 437.246, 317 467 C 286.754 497.010, 281.736 503.983, 276.967 522.628 C 275.242 529.373, 275 533.748, 275 558.160 C 275 573.472, 275.395 586, 275.877 586 C 278.433 586, 326.036 549.964, 334 542 C 334.275 541.725, 337.200 539.061, 340.500 536.080 C 347.186 530.039, 372.002 505.771, 431.500 447.088 C 480.160 399.094, 512.363 367.401, 550.164 330.302 L 578.827 302.170 566.164 289.855 C 559.199 283.081, 553.035 277.226, 552.468 276.842 C 551.891 276.452, 534.023 293.432, 511.973 315.322 M 26.061 318.750 C 24.797 320.262, 18.634 326.688, 12.366 333.030 L 0.971 344.559 27.236 370.551 C 53.638 396.680, 95.353 437.744, 138.994 480.565 C 151.922 493.250, 182.750 523.711, 207.500 548.255 L 252.500 592.881 253.048 566.690 L 253.596 540.500 249.753 535.882 C 247.639 533.342, 222.192 507.864, 193.205 479.264 C 164.217 450.664, 115.428 402.230, 84.784 371.632 C 54.141 341.034, 28.909 316, 28.715 316 C 28.520 316, 27.326 317.238, 26.061 318.750 M 549.864 355.902 C 528.064 377.681, 478.048 427.339, 438.718 466.254 L 367.208 537.008 366.570 551.254 C 366.219 559.089, 366.287 571.575, 366.721 579 L 367.510 592.500 400.005 560.516 C 417.877 542.925, 446.450 514.787, 463.500 497.986 C 507.532 454.598, 542.876 419.974, 562 401.491 C 571.075 392.720, 587.884 376.323, 599.353 365.052 L 620.206 344.560 605.669 330.280 C 597.674 322.426, 590.766 316.069, 590.317 316.152 C 589.867 316.236, 571.664 334.123, 549.864 355.902 M 337 565.686 C 321.728 579.265, 296.362 597.760, 279.750 607.426 L 275 610.190 275 624.077 L 275 637.964 170.250 638.232 L 65.500 638.500 60.736 640.846 C 47.473 647.377, 47.594 665.496, 60.945 672.258 L 66.391 675.016 310.945 674.758 L 555.500 674.500 559.750 672.229 C 568.556 667.526, 571.772 657.202, 567.195 648.334 C 564.697 643.495, 561.120 640.676, 555.500 639.119 C 552.695 638.342, 520.998 638.009, 449.366 638.006 L 347.232 638 346.504 603.750 C 346.103 584.913, 345.938 566.912, 346.138 563.749 C 346.337 560.585, 346.275 558.027, 346 558.063 C 345.725 558.099, 341.675 561.529, 337 565.686" stroke="none" fill="#141e2e" fill-rule="evenodd"/>
</svg>